<?xml version="1.0" encoding="utf-8"?>
<!-- Generator: Adobe Illustrator 24.2.0, SVG Export Plug-In . SVG Version: 6.00 Build 0)  -->
<svg version="1.1" id="Layer_1" xmlns="http://www.w3.org/2000/svg" xmlns:xlink="http://www.w3.org/1999/xlink" x="0px" y="0px"
	 viewBox="0 0 854.6 346.9" style="enable-background:new 0 0 854.6 346.9;" xml:space="preserve">
<style type="text/css">
	.st0{fill:#B12029;}
	.st1{fill:#FFFFFF;}
</style>
<path class="st0" d="M271.9,29.4l0.8,2.8C323,22.1,374,17.1,425.3,17.1c52.6,0,105,5.6,156.4,16.7l0.9-2.8
	C483.1-9.8,371.7-10.3,271.9,29.4L271.9,29.4z"/>
<path class="st0" d="M407.2,23.4h-1.4v1.4l0.1,20.1l0.8,0.4c1.7,0.8,6,7.8,9.1,54.1l0.1,12.1h18.7l0.1-12.1
	c3.2-46.4,7.4-53.3,9.1-54.1l0.8-0.4V23.4l-19.3-0.8L407.2,23.4z"/>
<path class="st0" d="M420.6,251.9l4.7,95h3l5.5-95H420.6z"/>
<path class="st1" d="M458.1,130.6l-9.2,0.5l-9.9-0.6v0.6v1.7l0.5,0.1c5.5,0.8,5.5,1.8,5.5,5.4v23.1c0,11.8-4.9,16.4-17.6,16.4
	s-17.7-4.6-17.7-16.4v-23c0-3.5,0-4.6,5.6-5.4l0.5-0.1v-2.3l-10,0.6l-9.9-0.6v0.6v1.7l0.5,0.1c5.6,0.8,5.6,2,5.6,5.4v23.3
	c0,14.2,7.9,20.6,25.5,20.6s25.5-6.4,25.5-20.6v-23.4c0-3.5,0-4.6,5.5-5.4l0.5-0.1v-2.3L458.1,130.6z"/>
<path class="st1" d="M726.1,117.5h-0.8v3.3l0.7,0.1c4.8,0.7,5.3,1.7,5.5,3l0.1,2.1v16.8l-6.6-0.3l0.6,1.7l1.8,5.1l0.5,0.1
	c0,0,2.6,0.1,3.6,0.1v22.9c0,3.4,0,4.3-5.5,5.1l-0.7,0.1v3.3h56.3v-1.1c-0.1-4,0.5-8,1.6-11.8l0.5-1.5h-3.5l-0.2,0.7
	c-2,7.4-4.5,8-16.4,8h-23.5v-25c7.1,0.8,14.2,2.2,21.1,4.1l0.4-2c-6.7-3.8-14-6.5-21.5-8.1v-21h23.6c8.8,0,11.4,0.3,13.2,6.5
	l0.2,0.7h3.5l-0.5-1.5c-1-3.3-1.5-6.8-1.5-10.3v-1L726.1,117.5L726.1,117.5z"/>
<path class="st1" d="M682.2,134c-8-3.8-17.3-4.5-28.8-4.5h-19.7v3.1l0.7,0.1c5.3,0.7,5.3,1.6,5.3,4.9v35.1c0,3.3,0,4.2-5.3,4.9
	l-0.7,0.1v3.2h20.1c11.7,0,20.5-0.8,28.8-5c9.2-4.5,14.3-11.9,14.3-20.7S691.5,138.3,682.2,134z M673.9,172.8
	c-6.1,2.3-12.3,2.7-19.8,2.7h-6.1v-40.7h5.4c11,0,19.1,0.8,25.7,5c5.9,3.8,9.2,9.2,9.2,15.3C688.3,162.8,682.9,169.4,673.9,172.8z"
	/>
<path class="st1" d="M598.9,129.3l-9.4,0.5l-10-0.6v1.1v2.1l0.7,0.1c5.3,0.7,5.3,1.6,5.3,4.9v35.5c0,3.3,0,4.2-5.3,4.9l-0.7,0.1v3.2
	l10.1-0.6l10.1,0.6v-1V178l-0.7-0.1c-5.3-0.7-5.3-1.6-5.3-4.9v-35.5c0-3.3,0-4.2,5.3-4.9l0.7-0.1v-3.2L598.9,129.3z"/>
<path class="st1" d="M490.6,129.5h-0.7v3.1l0.7,0.1c5.3,0.7,5.3,1.6,5.3,4.9v35.3c0,3.3,0,4.2-5.3,4.9l-0.7,0.1v3.2l10-0.6l10.1,0.6
	v-1V178l-0.7-0.1c-5.3-0.7-5.3-1.6-5.3-4.9v-38.1h5.2c14.3,0,23.2,1.4,23.2,8.2c0,6-8.3,9.5-22.3,9.5h-1.4c-2.3,0-3.9,0-3.9,1.7
	c0,0.9,0.3,1.1,3.7,3.6c9.4,7,18.4,14.7,26.8,22.9l0.2,0.2l5.3-0.2l7.9,0.2v-1v-2.2h-0.7c-3.8-0.2-5.2-0.8-6.8-2.1l-4.2-3.6
	c-3.9-3.5-9.7-8.7-18.2-15.4c13.4-1,22.3-6.5,22.3-14.1c0-8.2-8.2-13.1-22-13.1L490.6,129.5z"/>
<path class="st1" d="M334.9,129.3l-9.4,0.5l-10-0.6v1.1v2.1l0.7,0.1c5.3,0.7,5.3,1.6,5.3,4.9v35.2c0,3.3,0,4.2-5.3,4.9l-0.7,0.1v3.2
	h50v-1.6c0-3.5,0.9-7.9,1.9-12.6l0.3-1.3h-3.4l-0.1,0.7c-1.8,9.1-4.6,9.4-17.5,9.4h-17v-38c0-3.3,0-4.2,5.3-4.9l0.6-0.1v-3.2
	L334.9,129.3z"/>
<path class="st1" d="M249.9,137.5c0-3.3,0-4.2,5.3-4.9l0.7-0.1v-3.2h-0.8l-9.4,0.5l-10-0.6v1.1v2.1l0.6,0.1c5.3,0.7,5.3,1.6,5.3,4.9
	v35.2c0,3.3,0,4.2-5.3,4.9l-0.6,0.1v3.2h50v-1.6c0-3.5,0.9-7.9,1.9-12.6l0.3-1.3h-3.4l-0.1,0.7c-1.8,9.1-4.6,9.4-17.5,9.4h-17V137.5
	z"/>
<path class="st1" d="M114.6,114.4H44.8v1c-0.1,3.5-0.7,7-2,10.4l-0.6,1.6h4.2l0.2-0.6c2.5-6.4,6-6.7,17.9-6.7l13.8-0.5v52.9
	c0,3.6,0,4.7-5.8,5.5l-0.7,0.1v3.5l10.8-0.6l10.8,0.6v-1.1v-2.3l-0.7-0.1c-5.8-0.8-5.8-1.9-5.8-5.5v-52.8c1.4,0.1,12.8,0.4,12.8,0.4
	c12.7,0,16.5,0.3,19.1,6.7l0.2,0.5h4.4l-0.7-1.6c-1.3-3.3-2.1-6.8-2.1-10.3v-1L114.6,114.4L114.6,114.4z"/>
<path class="st1" d="M199,129.5h-50.4v3.1l0.7,0.1c4.6,0.6,5.1,1.6,5.2,2.9l0,2v15.5c-3.7,1.4-7.4,3-10.9,5l0.4,1.9l10.4-2.5v15.1
	c0,3.3,0,4.2-5.3,4.9l-0.7,0.1v3.2h53.9v-1c-0.1-3.8,0.5-7.6,1.6-11.3l0.5-1.4h-3.4l-0.2,0.7c-2,7.1-4.3,7.7-15.7,7.7h-22.5v-19.2
	l13.6-1l0.2-0.6l2.1-5.8l-1.2-0.1c-5,0.1-9.9,0.7-14.8,1.9v-15.9h22.6c8.4,0,10.9,0.3,12.6,6.2l0.2,0.6h3.3l-0.4-1.4
	c-0.9-3.2-1.4-6.5-1.5-9.8v-1L199,129.5z"/>
<path class="st1" d="M792.9,118.9h-3.3v-1.2h8v1.3h-3.3v9h-1.4V118.9z"/>
<path class="st1" d="M799,117.6h2.1l3.3,7.8h0.1l3.2-7.8h2.1v10.3h-1.4v-8.5l0,0l-3.5,8.4h-0.9l-3.5-8.5l0,0v8.5H799L799,117.6z"/>
<path class="st1" d="M32.8,213.4l-9.9,20H18l-9.8-20v23H0v-36.5h11l9.4,20.1l9.5-20.1h11v36.5h-8.1V213.4z"/>
<path class="st1" d="M102.1,231.3c-7.7,7.2-19.6,7.2-27.3,0c-7.4-7.5-7.4-19.5,0-26.9c7.7-7.2,19.6-7.2,27.3,0
	C109.5,211.9,109.5,223.9,102.1,231.3L102.1,231.3z M99.3,217.9c0.1-3.1-1.1-6.1-3.1-8.3c-3.8-4.2-10.4-4.6-14.6-0.7
	c-0.3,0.2-0.5,0.5-0.8,0.8c-4.2,4.8-4.2,11.9,0,16.7c3.9,4.3,10.4,4.6,14.7,0.7c0.3-0.2,0.5-0.5,0.7-0.7
	C98.3,224,99.4,221,99.3,217.9L99.3,217.9z"/>
<path class="st1" d="M145.6,226.9c1.3,1.7,3.4,2.6,5.5,2.5c2.1,0.1,4.2-0.9,5.5-2.5c1.4-2,2.1-4.5,2-6.9v-20.2h8.2v20.4
	c0,5.3-1.5,9.4-4.4,12.2c-6.4,5.7-16.1,5.7-22.5,0c-3-2.8-4.4-6.9-4.4-12.2v-20.5h8.2V220C143.5,222.5,144.2,224.9,145.6,226.9z"/>
<path class="st1" d="M222.2,199.8h8.2v36.5h-8.2l-17.4-22.9v22.9h-8.1v-36.5h7.6l17.9,23.5V199.8z"/>
<path class="st1" d="M276.3,206.9v29.5h-8.2v-29.5h-10.4v-7.1h28.9v7.1H276.3z"/>
<path class="st1" d="M337.5,236.4l-3.4-7.9h-15.3l-3.4,7.9h-8.7l15.8-36.5h7.9l15.8,36.5H337.5z M326.5,210.7l-4.7,10.6h9.1
	L326.5,210.7z"/>
<path class="st1" d="M371.8,199.8h8.2v36.5h-8.2V199.8z"/>
<path class="st1" d="M436,199.8h8.2v36.5H436l-17.4-22.9v22.9h-8.2v-36.5h7.6l17.9,23.5V199.8z"/>
<path class="st1" d="M521.8,223.1l9.3-23.3h8.8l-14.7,36.6h-6.9l-14.7-36.5h8.8L521.8,223.1z"/>
<path class="st1" d="M565.7,199.8h8.1v36.5h-8.2L565.7,199.8z"/>
<path class="st1" d="M604.3,236.4v-36.6h8.2v29.3H628v7.3H604.3z"/>
<path class="st1" d="M655.4,236.4v-36.6h8.2v29.3h15.6v7.3H655.4z"/>
<path class="st1" d="M732.6,236.4l-3.4-7.9h-15.3l-3.4,7.9h-8.7l15.8-36.5h7.9l15.8,36.5H732.6z M721.6,210.7l-4.6,10.6h9.2
	L721.6,210.7z"/>
<path class="st1" d="M790.7,217.8h8.2v13c-3.6,4-8.7,6.1-15.1,6.1c-5,0.1-9.9-1.8-13.5-5.3c-3.6-3.5-5.6-8.4-5.5-13.5
	c-0.1-5.1,1.9-10,5.6-13.6c3.6-3.6,8.4-5.5,13.4-5.4c5-0.1,9.9,1.8,13.7,5.2l-4.2,6.1c-1.3-1.3-2.9-2.3-4.5-3
	c-1.4-0.6-2.9-0.8-4.5-0.8c-2.9-0.1-5.8,1.1-7.8,3.2c-4.2,4.7-4.3,11.8-0.1,16.6c1.9,2,4.5,3.1,7.3,3.1c2.5,0.1,4.9-0.5,7.1-1.6
	V217.8z"/>
<path class="st1" d="M854,199.8v7.3h-18.2v7.5h16.4v7h-16.4v7.6h18.8v7.2h-26.9v-36.6H854z"/>
</svg>
